<?xml version="1.0" encoding="UTF-8" standalone="no"?>
<svg width="112px" height="120px" viewBox="0 0 112 120" version="1.1" xmlns="http://www.w3.org/2000/svg" xmlns:xlink="http://www.w3.org/1999/xlink">
    <!-- Generator: Sketch 3.7.2 (28276) - http://www.bohemiancoding.com/sketch -->
    <title>Group 2</title>
    <desc>Created with Sketch.</desc>
    <defs>
        <path d="M46.4991726,33.2406775 C46.4991727,32.4968172 46.1438654,31.7962393 45.5398659,31.3491622 L3.91117644,0.535835136 C2.3264878,-0.637142685 0.0616515519,0.475714749 0.0616515519,2.42735043 L0.0616515519,68.5347222 C0.0616515519,69.8417962 1.13814518,70.901389 2.46606737,70.901389 C3.79398956,70.901389 4.87048319,69.8417962 4.87048319,68.5347222 L4.87048304,6.97863276 L41.9277462,34.5897444 L41.6903408,68.5347215 C41.6903408,69.8417955 42.7668344,70.9013883 44.0947566,70.9013883 C45.4226788,70.9013883 46.4991724,69.8417955 46.4991724,68.5347215 L46.4991726,33.2406775 Z" id="path-1"></path>
        <filter x="-50%" y="-50%" width="200%" height="200%" filterUnits="objectBoundingBox" id="filter-2">
            <feGaussianBlur stdDeviation="1.5" in="SourceAlpha" result="shadowBlurInner1"></feGaussianBlur>
            <feOffset dx="0" dy="1" in="shadowBlurInner1" result="shadowOffsetInner1"></feOffset>
            <feComposite in="shadowOffsetInner1" in2="SourceAlpha" operator="arithmetic" k2="-1" k3="1" result="shadowInnerInner1"></feComposite>
            <feColorMatrix values="0 0 0 0 0   0 0 0 0 0   0 0 0 0 0  0 0 0 0.19604846 0" type="matrix" in="shadowInnerInner1"></feColorMatrix>
        </filter>
        <path d="M59.4984761,34.2863256 L96.4894866,6.97863276 L96.127858,68.5347222 C96.127858,69.8417962 97.2043516,70.901389 98.5322738,70.901389 C99.860196,70.901389 100.93669,69.8417962 100.93669,68.5347222 L100.93669,2.42735043 C100.93669,0.475714749 98.6718534,-0.637142685 97.0871647,0.535835136 L55.4584753,31.3491622 C54.8544758,31.7962393 54.4991685,32.4968172 54.4991685,33.2406775 L54.4991687,68.5347215 C54.4991688,69.8417955 55.5756624,70.9013883 56.9035846,70.9013883 C58.2315068,70.9013883 59.3080004,69.8417955 59.3080004,68.5347215 L59.4984761,34.2863256 Z" id="path-3"></path>
        <filter x="-50%" y="-50%" width="200%" height="200%" filterUnits="objectBoundingBox" id="filter-4">
            <feGaussianBlur stdDeviation="1.5" in="SourceAlpha" result="shadowBlurInner1"></feGaussianBlur>
            <feOffset dx="0" dy="1" in="shadowBlurInner1" result="shadowOffsetInner1"></feOffset>
            <feComposite in="shadowOffsetInner1" in2="SourceAlpha" operator="arithmetic" k2="-1" k3="1" result="shadowInnerInner1"></feComposite>
            <feColorMatrix values="0 0 0 0 0   0 0 0 0 0   0 0 0 0 0  0 0 0 0.19604846 0" type="matrix" in="shadowInnerInner1"></feColorMatrix>
        </filter>
        <filter x="-50%" y="-50%" width="200%" height="200%" filterUnits="objectBoundingBox" id="filter-5">
            <feOffset dx="0" dy="2" in="SourceAlpha" result="shadowOffsetOuter1"></feOffset>
            <feGaussianBlur stdDeviation="2" in="shadowOffsetOuter1" result="shadowBlurOuter1"></feGaussianBlur>
            <feColorMatrix values="0 0 0 0 0   0 0 0 0 0   0 0 0 0 0  0 0 0 0.132586051 0" type="matrix" in="shadowBlurOuter1" result="shadowMatrixOuter1"></feColorMatrix>
            <feMerge>
                <feMergeNode in="shadowMatrixOuter1"></feMergeNode>
                <feMergeNode in="SourceGraphic"></feMergeNode>
            </feMerge>
        </filter>
        <linearGradient x1="50%" y1="0%" x2="50%" y2="100%" id="linearGradient-6">
            <stop stop-color="#F8F7F5" offset="0%"></stop>
            <stop stop-color="#EFF1F3" offset="100%"></stop>
        </linearGradient>
        <linearGradient x1="50%" y1="0%" x2="50%" y2="100%" id="linearGradient-7">
            <stop stop-color="#1ABC9C" offset="0%"></stop>
            <stop stop-color="#12836D" offset="100%"></stop>
        </linearGradient>
        <path d="M16.4857758,7.45215544 L19.7482757,15.770124 L19.7904632,15.770124 L23.0529631,7.45215544 L24.8248381,7.45215544 L24.8248381,17.6896552 L23.4396818,17.6896552 L23.4396818,13.6396553 L23.5803068,9.47715539 L23.5451506,9.47012414 L20.2264007,17.6896552 L19.305307,17.6896552 L16.0006195,9.49121789 L15.9654633,9.49824914 L16.099057,13.6396553 L16.099057,17.6896552 L14.7139008,17.6896552 L14.7139008,7.45215544 L16.4857758,7.45215544 Z M32.7387442,17.6896552 C32.6918689,17.4599665 32.6555412,17.2572342 32.6297598,17.0814521 C32.6039784,16.9056699 32.5887442,16.7287186 32.5840567,16.5505927 C32.3262429,16.9162195 31.9899181,17.2220758 31.5750723,17.4681708 C31.1602265,17.7142658 30.7137466,17.8373114 30.2356192,17.8373114 C29.4434278,17.8373114 28.8399182,17.6345791 28.4250724,17.2291083 C28.0102266,16.8236375 27.8028068,16.2646588 27.8028068,15.5521552 C27.8028068,14.8255891 28.0969445,14.2572354 28.6852286,13.8470771 C29.2735128,13.4369189 30.0715517,13.2318428 31.0793692,13.2318428 L32.5840567,13.2318428 L32.5840567,12.4794991 C32.5840567,12.0341843 32.4481205,11.6814535 32.1762442,11.421296 C31.9043678,11.1611384 31.5199967,11.0310616 31.0231192,11.0310616 C30.5778045,11.0310616 30.2156987,11.1447323 29.9367911,11.3720772 C29.6578835,11.5994221 29.5184317,11.8724662 29.5184317,12.1912178 L28.1965568,12.1912178 L28.1824943,12.1490303 C28.1543691,11.5959026 28.4156946,11.0896576 28.9664786,10.6302804 C29.5172626,10.1709031 30.2285836,9.94121788 31.1004629,9.94121788 C31.9629672,9.94121788 32.6567103,10.1603563 33.1817129,10.5986397 C33.7067155,11.0369232 33.9692129,11.6685575 33.9692129,12.4935616 L33.9692129,16.1568427 C33.9692129,16.4287191 33.9832752,16.6912164 34.0114004,16.9443427 C34.0395255,17.197469 34.0910875,17.445904 34.1660879,17.6896552 L32.7387442,17.6896552 Z M30.4395255,16.6771552 C30.9410905,16.6771552 31.3934297,16.5482502 31.7965567,16.2904365 C32.1996837,16.0326227 32.462181,15.7373131 32.5840567,15.404499 L32.5840567,14.166999 L31.0301504,14.166999 C30.4723352,14.166999 30.0258553,14.3076226 29.6906974,14.588874 C29.3555394,14.8701254 29.187963,15.2005908 29.187963,15.5802802 C29.187963,15.9177819 29.2934307,16.1849667 29.5043692,16.3818427 C29.7153078,16.5787187 30.0270234,16.6771552 30.4395255,16.6771552 L30.4395255,16.6771552 Z M39.2323378,14.1810615 L38.3323378,14.1810615 L38.3323378,17.6896552 L36.9471816,17.6896552 L36.9471816,6.72090546 L38.3323378,6.72090546 L38.3323378,13.0771553 L39.2182753,13.0771553 L41.2995252,10.0818429 L42.9589002,10.0818429 L40.3573377,13.5412178 L43.3315564,17.6896552 L41.7003065,17.6896552 L39.2323378,14.1810615 Z M48.2993688,17.8373114 C47.2399886,17.8373114 46.3974189,17.4845806 45.7716345,16.7791083 C45.1458502,16.0736361 44.8329627,15.1584109 44.8329627,14.0334053 L44.8329627,13.7240303 C44.8329627,12.6412124 45.1552251,11.7400496 45.7997595,11.0205147 C46.444294,10.3009799 47.207177,9.94121788 48.0884313,9.94121788 C49.114999,9.94121788 49.8907724,10.2505898 50.415775,10.8693429 C50.9407776,11.4880959 51.203275,12.3130877 51.203275,13.3443428 L51.203275,14.2091865 L46.2673376,14.2091865 L46.2462439,14.2443428 C46.2603065,14.9755964 46.4454609,15.5767622 46.8017126,16.0478583 C47.1579644,16.5189544 47.6571781,16.7544989 48.2993688,16.7544989 C48.7681212,16.7544989 49.1794452,16.6877027 49.5333532,16.5541083 C49.8872612,16.4205139 50.1931175,16.2365314 50.4509313,16.0021552 L50.9923375,16.9021552 C50.7204612,17.169344 50.361871,17.391998 49.9165563,17.5701239 C49.4712416,17.7482498 48.9321845,17.8373114 48.2993688,17.8373114 L48.2993688,17.8373114 Z M48.0884313,11.0310616 C47.6243665,11.0310616 47.2282768,11.2267628 46.9001501,11.618171 C46.5720235,12.0095792 46.370463,12.5005899 46.2954626,13.0912178 L46.3095251,13.126374 L49.8181188,13.126374 L49.8181188,12.9435615 C49.8181188,12.3998088 49.6728078,11.9451259 49.3821813,11.5794991 C49.0915549,11.2138723 48.6603092,11.0310616 48.0884313,11.0310616 L48.0884313,11.0310616 Z M57.3171812,11.3052803 L56.6070249,11.2630928 C56.2413981,11.2630928 55.9331981,11.3498107 55.6824156,11.5232491 C55.4316331,11.6966874 55.2382756,11.940435 55.1023375,12.2544991 L55.1023375,17.6896552 L53.7171812,17.6896552 L53.7171812,10.0818429 L54.9546812,10.0818429 L55.088275,11.1927803 C55.303901,10.7990284 55.569914,10.4920002 55.8863218,10.2716866 C56.2027296,10.051373 56.5671791,9.94121788 56.9796812,9.94121788 C57.0828067,9.94121788 57.1812432,9.94942092 57.2749937,9.96582725 C57.3687441,9.98223358 57.4460871,9.99981153 57.5070249,10.0185616 L57.3171812,11.3052803 Z M67.6217122,13.4849678 C67.6217122,14.7365365 67.2338254,15.7748073 66.4580403,16.5998115 C65.6822552,17.4248156 64.6756247,17.8373114 63.4381185,17.8373114 C62.2428001,17.8373114 61.2713255,17.4248156 60.5236655,16.5998115 C59.7760055,15.7748073 59.4021811,14.7365365 59.4021811,13.4849678 L59.4021811,11.6638741 C59.4021811,10.4169929 59.7760055,9.37872204 60.5236655,8.54903041 C61.2713255,7.71933879 62.2428001,7.3044992 63.4381185,7.3044992 C64.6756247,7.3044992 65.6822552,7.71816692 66.4580403,8.54551479 C67.2338254,9.37286265 67.6217122,10.4123054 67.6217122,11.6638741 L67.6217122,13.4849678 Z M66.236556,11.6498116 C66.236556,10.7123069 65.9834335,9.94356463 65.477181,9.34356164 C64.9709285,8.74355866 64.2912478,8.44356167 63.4381185,8.44356167 C62.6318645,8.44356167 61.9885116,8.74355866 61.5080405,9.34356164 C61.0275693,9.94356463 60.7873374,10.7123069 60.7873374,11.6498116 L60.7873374,13.4849678 C60.7873374,14.4318475 61.0275693,15.2052772 61.5080405,15.8052802 C61.9885116,16.4052832 62.6318645,16.7052802 63.4381185,16.7052802 C64.2959353,16.7052802 64.9767879,16.4064551 65.4806966,15.8087958 C65.9846054,15.2111366 66.236556,14.436535 66.236556,13.4849678 L66.236556,11.6498116 Z M77.3918682,8.54199916 L74.1012433,8.54199916 L74.1012433,17.6896552 L72.7160871,17.6896552 L72.7160871,8.54199916 L69.4324934,8.54199916 L69.4324934,7.45215544 L77.3918682,7.45215544 L77.3918682,8.54199916 Z M86.8948368,14.4130928 L86.9088993,14.4552803 C86.9276494,15.4162225 86.5901527,16.2201207 85.8963993,16.8669989 C85.2026458,17.5138772 84.2862488,17.8373114 83.1471806,17.8373114 C81.9893624,17.8373114 81.0460124,17.4271593 80.3171026,16.6068427 C79.5881927,15.7865261 79.2237432,14.7459116 79.2237432,13.4849678 L79.2237432,11.6638741 C79.2237432,10.4029303 79.5881927,9.36114388 80.3171026,8.53848354 C81.0460124,7.7158232 81.9893624,7.3044992 83.1471806,7.3044992 C84.3049989,7.3044992 85.2260834,7.61269923 85.9104618,8.22910855 C86.5948402,8.84551786 86.9276494,9.66230655 86.9088993,10.6794991 L86.8948368,10.7216866 L85.5659306,10.7216866 C85.5659306,10.0044955 85.3549952,9.43731373 84.9331181,9.02012415 C84.511241,8.60293458 83.9159344,8.39434292 83.1471806,8.39434292 C82.3737393,8.39434292 81.7573392,8.70605854 81.2979619,9.32949914 C80.8385846,9.95293974 80.6088994,10.7263695 80.6088994,11.6498116 L80.6088994,13.4849678 C80.6088994,14.4177849 80.8385846,15.1959021 81.2979619,15.8193427 C81.7573392,16.4427833 82.3737393,16.7544989 83.1471806,16.7544989 C83.9159344,16.7544989 84.511241,16.5470792 84.9331181,16.1322333 C85.3549952,15.7173875 85.5659306,15.1443464 85.5659306,14.4130928 L86.8948368,14.4130928 Z" id="path-8"></path>
        <filter x="-50%" y="-50%" width="200%" height="200%" filterUnits="objectBoundingBox" id="filter-9">
            <feOffset dx="0" dy="1" in="SourceAlpha" result="shadowOffsetOuter1"></feOffset>
            <feGaussianBlur stdDeviation="0.5" in="shadowOffsetOuter1" result="shadowBlurOuter1"></feGaussianBlur>
            <feColorMatrix values="0 0 0 0 0   0 0 0 0 0   0 0 0 0 0  0 0 0 0.175951087 0" type="matrix" in="shadowBlurOuter1"></feColorMatrix>
        </filter>
    </defs>
    <g id="MKR-github" stroke="none" stroke-width="1" fill="none" fill-rule="evenodd">
        <g id="MKROTC-git-head" transform="translate(-65.000000, -64.000000)">
            <g id="Group-2" transform="translate(69.000000, 64.000000)">
                <g id="logo-maker" transform="translate(2.000000, 0.000000)">
                    <g id="Path-3-Copy-4-+-Path-3-Copy-5-Copy" transform="translate(0.303658, 0.000000)">
                        <g id="Shape">
                            <use fill="#EFF1F3" fill-rule="evenodd" xlink:href="#path-1"></use>
                            <use fill="black" fill-opacity="1" filter="url(#filter-2)" xlink:href="#path-1"></use>
                        </g>
                        <g id="Shape">
                            <use fill="#EFF1F3" fill-rule="evenodd" xlink:href="#path-3"></use>
                            <use fill="black" fill-opacity="1" filter="url(#filter-4)" xlink:href="#path-3"></use>
                        </g>
                    </g>
                </g>
                <g id="Group-4" filter="url(#filter-5)" transform="translate(0.000000, 88.000000)">
                    <g id="Group-3" fill="url(#linearGradient-6)">
                        <rect id="Rectangle-766" x="0" y="0" width="104" height="26" rx="2.69999993"></rect>
                    </g>
                    <g id="MakerOTC">
                        <use fill="black" fill-opacity="1" filter="url(#filter-9)" xlink:href="#path-8"></use>
                        <use fill="url(#linearGradient-7)" fill-rule="evenodd" xlink:href="#path-8"></use>
                        <use fill="black" fill-opacity="1" xlink:href="#path-8"></use>
                    </g>
                </g>
            </g>
        </g>
    </g>
</svg>